<svg id="Layer_1" data-name="Layer 1" xmlns="http://www.w3.org/2000/svg" xmlns:xlink="http://www.w3.org/1999/xlink" viewBox="0 0 269.5 98.8"><defs><style>.cls-1{fill:url(#linear-gradient);}.cls-2{fill:#0071b9;}.cls-3{fill:url(#linear-gradient-2);}.cls-4{fill:#1d2c5e;}.cls-5{fill:url(#linear-gradient-3);}.cls-6{fill:url(#linear-gradient-4);}.cls-7{fill:#312370;}.cls-8{fill:#21386e;}.cls-9{fill:url(#linear-gradient-5);}.cls-10{fill:url(#linear-gradient-6);}.cls-11{fill:url(#linear-gradient-7);}.cls-12{fill:#ffcb05;}.cls-13{fill:#7d7f68;}.cls-14{fill:#c7a008;}.cls-15{fill:#3c5aa6;}.cls-16{fill:#3567b0;}.cls-17{fill:#1e2d5f;}.cls-18{fill:#3466af;}.cls-19{fill:url(#linear-gradient-8);}.cls-20{fill:url(#linear-gradient-9);}</style><linearGradient id="linear-gradient" x1="426.73" y1="1474.72" x2="416.71" y2="1456.05" gradientTransform="translate(-413.45 -1421.19)" gradientUnits="userSpaceOnUse"><stop offset="0" stop-color="#0070b6"/><stop offset="1" stop-color="#1d2c5e"/></linearGradient><linearGradient id="linear-gradient-2" x1="548.9" y1="1436.55" x2="561.62" y2="1422.93" xlink:href="#linear-gradient"/><linearGradient id="linear-gradient-3" x1="493.44" y1="1459.29" x2="491.93" y2="1446.55" xlink:href="#linear-gradient"/><linearGradient id="linear-gradient-4" x1="632.33" y1="1456.83" x2="631.72" y2="1445.34" gradientTransform="translate(-413.45 -1421.19)" gradientUnits="userSpaceOnUse"><stop offset="0" stop-color="#125d9e"/><stop offset="1" stop-color="#1d2c5e"/></linearGradient><linearGradient id="linear-gradient-5" x1="589.91" y1="1440.26" x2="576.56" y2="1461.49" xlink:href="#linear-gradient-4"/><linearGradient id="linear-gradient-6" x1="471.88" y1="1474.28" x2="480.97" y2="1492.17" gradientTransform="translate(-413.45 -1421.19)" gradientUnits="userSpaceOnUse"><stop offset="0" stop-color="#105fa1"/><stop offset="1" stop-color="#1d2c5e"/></linearGradient><linearGradient id="linear-gradient-7" x1="437.47" y1="1468.21" x2="448" y2="1492.62" xlink:href="#linear-gradient-6"/><linearGradient id="linear-gradient-8" x1="639.71" y1="-1724.79" x2="655.64" y2="-1724.79" gradientTransform="matrix(1, 0, 0, -1, -569.45, -1668.69)" gradientUnits="userSpaceOnUse"><stop offset="0" stop-color="#3c5aa6"/><stop offset="0.93" stop-color="#2b73b9"/><stop offset="1" stop-color="#2a75bb"/></linearGradient><linearGradient id="linear-gradient-9" x1="578.55" y1="-1718.24" x2="844.25" y2="-1718.24" gradientTransform="matrix(1, 0, 0, -1, -574.9, -1670.37)" xlink:href="#linear-gradient-8"/></defs><polygon id="polygon16" class="cls-1" points="0 36.6 12 56.9 16.8 52.3 3.7 32.8 0 36.6"/><polygon id="polygon18" class="cls-2" points="178.6 20.6 178.1 23.3 183.8 21.4 183.1 18.1 178.6 20.6"/><polygon id="polygon25" class="cls-3" points="145 2.3 126.5 23.5 131.9 22 149.5 0 145 2.3"/><polygon id="polygon27" class="cls-4" points="244.1 31.3 248.6 28.9 247.3 40.3 244.1 31.3"/><polygon id="polygon29" class="cls-4" points="215.8 38.6 219.9 39.5 225 37 220.5 35.3 215.8 38.6"/><polygon id="polygon36" class="cls-5" points="76.6 26.6 77.2 39.7 82.9 37.5 81.2 24.1 76.6 26.6"/><polygon id="polygon43" class="cls-6" points="220.2 22.6 215.7 25.1 215.8 38.6 220.4 36.3 221.8 29.7 220.2 22.6"/><polygon id="polygon45" class="cls-7" points="219.6 39.5 214.6 83.9 222.6 82.3 224.1 37.1 219.6 39.5"/><polygon id="polygon47" class="cls-8" points="229.3 86 229.5 92 244.8 96.9 249.4 94.5 234.3 82.8 219.1 81.5 214.6 83.9 229.3 86"/><polygon id="polygon49" class="cls-8" points="172.5 75.4 176.2 73.4 178.7 77.8 182.2 75.9 182.9 81.7 205.2 85.7 209.6 83.2 178.9 64.5 157.1 68.2 152.9 72.3 172.5 75.4"/><polygon id="polygon56" class="cls-9" points="165.4 20.8 160.9 23.3 152.9 72.3 157.4 69.9 165.1 42.4 165.4 20.8"/><polygon id="polygon58" class="cls-4" points="129.8 27.4 126.2 29.3 126.5 30.5 135 25.1 131.3 21.1 126.5 23.5 129.8 27.4"/><polygon id="polygon60" class="cls-8" points="139.5 85.3 103.2 67.3 107.7 63.8 144 82.8 139.5 85.3"/><polygon id="polygon62" class="cls-4" points="106.6 18.3 101.1 28.7 106.9 27 111.1 15.8 106.6 18.3"/><path id="path69" class="cls-10" d="M56.6,61.4,52,64.6a71.61,71.61,0,0,0,2.3,8.8,19.79,19.79,0,0,0,4.3,6.5,17.08,17.08,0,0,0,7,4.1,19.5,19.5,0,0,0,15.9-2.7,25.89,25.89,0,0,0,4.2-3.2C80.8,81.1,56.6,61.4,56.6,61.4Z"/><polygon id="polygon71" class="cls-4" points="81.5 38.7 85.7 85.4 103.1 82.9 107.7 80.5 86.2 35.9 81.8 37.4 77.2 39.7 81.5 38.7"/><polygon id="polygon78" class="cls-11" points="16.5 54.9 35.9 98.8 54.3 92.9 58.8 89.9 20.6 49.9 15.8 52.8 12 56.9 16.5 54.9"/><path id="path80" class="cls-4" d="M208.4,75.6l.3,2.2a24.41,24.41,0,0,0,4.7-.9c1.7-.6,5.3-2.2,6.6-3.4-.6.2-9,2.4-11.6,2.1"/><path id="path82" class="cls-4" d="M143.3,64.4l.7,3.5a28.13,28.13,0,0,0,10.1-3.8c2-1.2,4.1-2.9,4.8-3.4C158.4,61,143.3,64.4,143.3,64.4Z"/><g id="g84"><path id="path86" class="cls-12" d="M41,94.61l-1.4-3.2-18.4-41-.4-.8L20,50l-.6.3-3.3,1.6c-.5-.8-1.3-2.2-1.8-3.1l-7.4-12.5L5,33l3.2-2a69.37,69.37,0,0,1,10.2-5.3,57.35,57.35,0,0,1,21.8-4.8,44,44,0,0,1,6.5.5,20.34,20.34,0,0,1,9.2,3.3,20.24,20.24,0,0,1,8.7,9.6,18.35,18.35,0,0,1,.8,11.2l-.5,2.4,2-1.4a17.55,17.55,0,0,1,4.2-2.4,20.53,20.53,0,0,1,8-1.7,17.19,17.19,0,0,1,7.2,1.5l1.4.6-.1-1.6-.6-6.7-.1-1.1-1,.3-3.1.8-.5-11.4,22.8-7.3-.2,8.9,1.7.4,5-9.5,14.9,13.2.6.6.6-.6a23.34,23.34,0,0,1,7.2-4.6l1.1-.5-.8-1-2.7-3.3,17.1-19.7,9,13.4-13.7,7.4-3,1.6,3.5.1a21,21,0,0,1,16.2,7.7l1.4,1.8.9,1.1-1.5,1.6-1,1.1-3.4,3.7-.6.7.7.6,3.2,2.9,1.2,1.1.3-1.6L164,37l.3-2h0l.3-2,1.8-11.3h17l.1-.8.3-1.9h14.8l3.6,22.6.2,1.5,1.2-.9a22.31,22.31,0,0,1,4.8-2.6,18.88,18.88,0,0,1,7-1.3,15.81,15.81,0,0,1,7.8,1.9c.1,0,.1.1.3.2l1.1.4.1-1.2.3-2.5.1-.8-.8-.2-3-.7-.1-11.8,22.9,5,1.7,8.5h1.8l1.8-7.3,19.1,4.6-19.6,58.9L235,88.91l-.1-5.4v-.8l-.8-.1-13.9-2,.8-7.1.2-1.7-1.5.8a9.49,9.49,0,0,1-2.1.9,18.74,18.74,0,0,1-6.9,1.3,13.4,13.4,0,0,1-2-.1l-1.2-.1.2,1.2,1,6.2-20.3-3.6-1.1-9.2-.3-3-1.4,2.6-2.3,4.5-4.3-7.9-1.3-2.4-.4,2.7-.9,6.1L158.55,69l1.4-8.4.3-1.9-1.7,1a36.19,36.19,0,0,1-10.2,4,29.67,29.67,0,0,1-4.3.7l-.8.1v16.8l-35-17.3-1.3-.6v16.3L91.25,82l-.7-7.1-.2-1.9L89,74.31a24.15,24.15,0,0,1-6.9,4.7,20.43,20.43,0,0,1-7.9,1.7,18.66,18.66,0,0,1-7.5-1.6,16.09,16.09,0,0,1-8.6-10.4,17.66,17.66,0,0,1-.5-6.9l.3-2.5-1.8,1.8a48.67,48.67,0,0,1-4.2,3.5l-.5.4.2.6,5.3,20.2.9,3.6-3.5,1.1-9.9,3.2-3.4.9Zm4.4-54.3a9.15,9.15,0,0,0-1.6.1l-.7.1-1,.2.3,1,.2.6,2.8,9.3.3.9.4,1.3,1-.9.7-.6c2.8-2.5,3.7-5,3.1-8.2a4.5,4.5,0,0,0-2.7-3.2,5.55,5.55,0,0,0-2.8-.6Zm76.2.3-1.8,1.7-4.7,4.5-1,1,1.3.5,5,1.9,1.5.6-.3-1.6a21.71,21.71,0,0,1-.3-6.2l.3-2.4Zm20.4-5.2a6.77,6.77,0,0,0-5.1,2.3,7.13,7.13,0,0,0-1,8.1l.4.7.6,1.1.9-1,.6-.6,6.9-7.8.5-.6.9-1-1.2-.5-.8-.3a13.57,13.57,0,0,0-2.7-.4Z"/></g><path id="path88" class="cls-13" d="M152.4,47l-.2.2a.22.22,0,0,0,.2-.2Z"/><polygon id="polygon90" class="cls-13" points="158.4 41.6 161.8 37.9 160.6 39.1 160.6 39 159.6 40.1 156.2 43.7 159.4 46.6 160 43 161.6 44.4 158.4 41.6"/><polygon id="polygon92" class="cls-13" points="158.4 41.6 161.6 44.4 162.8 36.8 161.8 37.9 158.4 41.6"/><path id="path96" class="cls-14" d="M134.7,50.7c.3.3,0,.1.3.3l2.1-1.5c-.3-.2-.6-.5-.9-.7-3-2.8-2.2-9-.3-12.4-5.2,4.2-4.9,10.6-1.2,14.3"/><path id="path98" class="cls-14" d="M160,54.2a30.19,30.19,0,0,1-12.6,6,13.22,13.22,0,0,1-3.3.5c-8.3.8-15.2-3-17.8-9.1a15.55,15.55,0,0,1-.8-2.3,16.37,16.37,0,0,1,2.4-13.5,8.74,8.74,0,0,1,.8-1c-.1.1-.3.2-.4.3a14.23,14.23,0,0,0-2.6,2.9,16.3,16.3,0,0,0-2.4,13.5,9,9,0,0,0,.8,2.3c2.6,6.2,9.6,10,17.8,9.2a22.14,22.14,0,0,0,3.4-.6c5.2-1.3,9.2-3.1,12.6-6,.8-.7,1.7-1.5,2.5-2.3l-.1-.1c-.2.1-.3.1-.3.2"/><polygon id="polygon100" class="cls-14" points="101.7 38.5 110.9 25.5 110.5 25.2 101.6 37.7 101.7 38.5"/><polygon id="polygon102" class="cls-14" points="162.8 36.8 161.6 44.4 160 43 159.4 46.6 156.2 43.7 159.6 40.1 160.6 39 160.6 39.1 161.8 37.9 162.8 36.8"/><polygon id="polygon104" class="cls-14" points="151.4 15.4 154.6 14 148.7 6.4 146.8 9.2 151.4 15.4"/><path id="path106" class="cls-14" d="M61.8,34.2c-15-18.2-41.9-8.4-51.5.1l.4.7a76.13,76.13,0,0,1,7-3.5c9.6-4.1,18.8-5.3,26.1-4a17.4,17.4,0,0,1,7.7,2.7,16.92,16.92,0,0,1,7.3,7.9c2.6,6,.3,14-5.8,20.6C60.7,51.6,66,44.8,61.8,34.2Z"/><path id="path108" class="cls-14" d="M92.3,55.4c-.1-.3-.1-.7-.2-1a12.05,12.05,0,0,0-5-7c-3.8-2.6-9.2-3.1-14.5-.9a21.06,21.06,0,0,0-7.2,5.3,19.9,19.9,0,0,1,5-3.1c5.3-2.3,10.7-1.7,14.5.9a12.05,12.05,0,0,1,5,7,3.55,3.55,0,0,1,.2,1,20.68,20.68,0,0,1,.3,3.5,18.61,18.61,0,0,1-3.5,10,13.44,13.44,0,0,1-1.1,1.4A21.1,21.1,0,0,0,89,69a18.74,18.74,0,0,0,3.6-10,21.86,21.86,0,0,0-.3-3.6"/><path id="path110" class="cls-14" d="M77.6,51s2.2-2.2,2.1-2.2c-2.7-.1-3.9,2.5-4,2.7a5.92,5.92,0,0,1,1.9-.5"/><path id="path112" class="cls-14" d="M82.7,54.1a4.25,4.25,0,0,1,.2,1.1,2.93,2.93,0,0,1-.4,1.6c.4-.2,3.6-1.8,2.4-5,.1.2-2.3,2.3-2.2,2.3"/><path id="path114" class="cls-14" d="M70.3,56c0-1.3,2.3-4.6,3-5.7-3.6,2.3-5.2,5.4-5.2,7.8a7.91,7.91,0,0,0,8.1,7.6,10.32,10.32,0,0,0,8.4-5.1c-1.3.9-4.6,2.9-6.4,2.9A7.65,7.65,0,0,1,70.3,56"/><polygon id="polygon116" class="cls-14" points="101.2 59.8 101.3 76.7 104 76.9 103.4 57.6 101.2 59.8"/><polygon id="polygon118" class="cls-14" points="85.8 27.5 85.8 29 98.6 25.2 99.5 41.5 101.7 38.5 101.2 22.2 85.8 27.5"/><polygon id="polygon120" class="cls-14" points="124.3 33.3 112.4 22.3 110.9 25.5 121.5 35.4 124.3 33.3"/><path id="path122" class="cls-14" d="M122.5,53.8l-14.1-4.7-2,2.2,14,5.6a19.12,19.12,0,0,0,7,7.4,22.28,22.28,0,0,0,9.8,3.2v6.9l2.2,1.1.7-10.4L122.5,53.8Z"/><path id="path124" class="cls-14" d="M145.1,51.9a12.94,12.94,0,0,0,7.2-4.6c-1.3,1.1-7.7,2.5-8.8,2.8l-2.1,2.3a18,18,0,0,0,3.7-.5"/><path id="path126" class="cls-14" d="M138.8,27.9c-6.4.8-9.7,6.2-10.2,6.8a19.82,19.82,0,0,1,8.6-4.2c7.9-1.9,14.8.5,19.1,5.8l2.7-2.2c-4.3-5.2-12.3-8.1-20.2-6.2"/><path id="path128" class="cls-14" d="M160.2,54a26.39,26.39,0,0,0,2.9-2.1l-8.5-7.6c-.7.8-1.2,2.1-2,2.7l7.6,7Z"/><path id="path130" class="cls-14" d="M203.9,74.4c-8.9-7.4-8.4-23.1-4-28.1L196,21.6l-8.6,1.1-.4,2.2h6.5L197,47.3c-4.4,5-6.5,11.7-5.1,17.9A16.06,16.06,0,0,0,200.2,76c.4.2.9.4,1.3.6l.1.3,2.6.4c-.1.1.2-2.7-.3-2.9Z"/><polygon id="polygon132" class="cls-14" points="169.6 25.2 169.2 27.4 179 27.4 181.9 43.3 184.1 41.1 181.8 24.3 169.6 25.2"/><polygon id="polygon134" class="cls-14" points="186.4 56 183.2 64.2 184 66.4 188.5 53.9 186.4 56"/><polygon id="polygon136" class="cls-14" points="177 50.9 174.8 53.1 172.4 67.9 174.7 68.7 177 50.9"/><path id="path138" class="cls-14" d="M221.1,46.1a10.74,10.74,0,0,1,3.2,3.5,13,13,0,0,1,1.5,3.6,16,16,0,0,1-3,13.1,10.63,10.63,0,0,1-.9,1.1c1.1-1,15.1-11.3,1.5-24.8-15-4.9-20.7,4.8-21.2,5.5a18.37,18.37,0,0,1,5.4-3.2,14.09,14.09,0,0,1,13.5,1.2"/><path id="path140" class="cls-14" d="M213.6,47.1c0,.1,2.2-2.2,2.2-2.2-2.7.1-4,1.4-3.8,2a2.51,2.51,0,0,0-.4.7,5.34,5.34,0,0,1,2-.5"/><path id="path142" class="cls-14" d="M218.6,50.5a4.1,4.1,0,0,1,.1,1.1,3.26,3.26,0,0,1-.4,1.4,3.57,3.57,0,0,0,2.4-4.8c.1.2-2.2,2.3-2.1,2.3"/><path id="path144" class="cls-14" d="M211.5,61.8c3,.1,6.4-1.7,8.8-5-6.1,1.3-12.6-9-12-10-2.3,1.7-4.4,4.9-4.5,7.2-.2,4.2,3.3,7.6,7.7,7.8"/><polygon id="polygon146" class="cls-14" points="245.2 88.5 246.6 89.4 264.2 36.6 251 33.6 250.9 36.7 261.5 39 245.2 88.5"/><polygon id="polygon148" class="cls-14" points="224.3 27.9 224.4 30.9 238.4 33.7 243.8 59.3 246 57.1 240.8 31.2 224.3 27.9"/><polygon id="polygon150" class="cls-14" points="235.1 57.1 231.2 78.9 233.4 79.6 237.3 54.9 235.1 57.1"/><polygon id="polygon152" class="cls-14" points="53.4 86.8 46.9 63.1 44.5 64.8 50.6 87.5 53.4 86.8"/><path id="path154" class="cls-14" d="M51.7,51.2a48,48,0,0,1-6.8,5.9l-1.2-3.7-2.5-8.2-1.6-5.5-1.6,2,1.6,5.5,2.5,8.1L43.3,59a25.81,25.81,0,0,0,8.4-7.8"/><path id="path156" class="cls-13" d="M144.5,37.1c-2.1-.8-5-.6-6.6,1.2a8,8,0,0,0-1.3,1.9,6.75,6.75,0,0,1,6-.8l1.9-2.3Z"/><path id="path158" class="cls-13" d="M49.9,44.5a4,4,0,0,0-2-2.5,7.35,7.35,0,0,0-4.2-.3c.2.8.5,1.8.6,2.2a12.86,12.86,0,0,1,1.9.4A3,3,0,0,1,48,46.5a6.47,6.47,0,0,1-.5,4.4,6.85,6.85,0,0,0,2.4-6.4"/><g id="g160"><g id="g162"><path id="path164" class="cls-15" d="M53.15,44.41c-.9-4.8-7.2-7.5-13.5-4.1l1.6,5.5,2.5,8.2,1.2,3.7C49.65,54.81,54.35,51.11,53.15,44.41ZM47,51.91c-.7-2.2-2.2-7-2.2-7s-.3-1-.7-2.2a6.13,6.13,0,0,1,3.6.4,3,3,0,0,1,1.8,2.2C50.05,47.91,49.15,49.91,47,51.91Z"/></g></g><g id="g166"><g id="g168"><path id="path170" class="cls-16" d="M147.75,36.81a8.56,8.56,0,0,0-11.6,12.6,5.5,5.5,0,0,0,.9.7l11.3-12.8A2.65,2.65,0,0,1,147.75,36.81Zm-10.6,9a5.47,5.47,0,0,1,.8-6.4,5.6,5.6,0,0,1,6.1-1.4Z"/></g></g><polygon id="polygon172" class="cls-17" points="162.8 35.4 156.6 41.4 162.5 46.7 162.8 35.4"/><path id="path174" class="cls-18" d="M220.7,48.3a4.87,4.87,0,0,1,.1,1.2,4.89,4.89,0,1,1-5.2-4.5,7.72,7.72,0,0,0-1.5-.2c-4.5-.2-8.1,3-8.3,6.9a7.57,7.57,0,0,0,7.6,7.8,7.7,7.7,0,0,0,8.3-7.2,5.29,5.29,0,0,0-1-4"/><path id="path183" class="cls-19" d="M85.1,53.1a4.59,4.59,0,0,1-4.8,4.3,4.31,4.31,0,1,1-.4-8.6,7.57,7.57,0,0,0-1.5-.1c-4.5,0-8,3.3-8,7.3a8,8,0,0,0,15.9,0A7.07,7.07,0,0,0,85,52c0,.3.1.7.1,1.1"/><g id="g185"><g id="g187"><path id="path196" class="cls-20" d="M248.55,28.91l-2,8.2-1.8-9.1-24.6-5.4.2,13.7,3.7.8-.3,2.5a.1.1,0,0,1-.1-.1,18.8,18.8,0,0,0-15.6-.6,21.86,21.86,0,0,0-5,2.7l-3.7-23.4h-16.3l-.4,2.7h-17.2l-2,12-1.4-1.8a22.32,22.32,0,0,0-16.9-8.1l14.6-7.8L149.55,0l-18.4,21.2,3.2,3.9a24.11,24.11,0,0,0-7.5,4.8l-15.8-14-5.5,10.5.2-10.2-24.7,7.9.7,13.2,4.2-1.1.6,6.7a19.59,19.59,0,0,0-15.9.2,20.94,20.94,0,0,0-4.4,2.5,18.6,18.6,0,0,0-.9-11.7,21.36,21.36,0,0,0-9-10,21.29,21.29,0,0,0-9.6-3.4c-8.5-1.5-18.8,0-28.9,4.3a71.32,71.32,0,0,0-10.3,5.4l-3.9,2.5,2.4,4,7.4,12.6,2.3,3.8,4-2,.6-.3,18.4,41,1.8,3.9,4.1-1.3,9.9-3.2,4.4-1.4-1.1-4.4-5.3-20.2a36.22,36.22,0,0,0,4.2-3.6,19.36,19.36,0,0,0,.5,7.2,16.88,16.88,0,0,0,9.1,10.9,19.63,19.63,0,0,0,16.1,0,22.43,22.43,0,0,0,7.2-4.9l.7,8.1,17.4-2.6V64.71l36.3,18V65.41a33.54,33.54,0,0,0,4.4-.7,39.64,39.64,0,0,0,10.5-4.1l-1.5,9.3,19.6,3.1,1.1-7.1,5.1,9.5,3.1-6,1.1,9.9,22.2,3.9-1.2-7.5a21.55,21.55,0,0,0,9.3-1.2,13.55,13.55,0,0,0,2.1-1l-.9,8,14.8,2.1.1,6.1,15.4,4.8L269.35,34l-20.8-5.1Zm-86.8,9,1-1.1-1.2,7.6-3.2-2.9Zm-13-31.2,5.4,7.3-15.4,7.6-1.1-1.6C137.65,20.11,148.75,6.71,148.75,6.71ZM46.85,63.11,53,86.71l-9.9,3.2-20.4-45.6c-1.1.6-3.2,1.6-5,2.5l-7.4-12.5a66.76,66.76,0,0,1,9.6-5c9.6-4.1,18.8-5.3,26.1-4a17.4,17.4,0,0,1,7.7,2.7,16.92,16.92,0,0,1,7.3,7.9C64.55,44.11,58.65,55.91,46.85,63.11Zm45.7-4.2a18,18,0,0,1-3.6,10,20.26,20.26,0,0,1-8.3,6.7c-8.6,3.7-17.2,0-19.5-8.2-2.2-7.9,3-17.3,11.3-20.9,5.3-2.3,10.7-1.7,14.5.9a12.05,12.05,0,0,1,5,7,3.55,3.55,0,0,1,.2,1A10.78,10.78,0,0,1,92.55,58.91Zm46.9,16.7-36.1-18,.1,18.9-9.3,1.3-.7-7.8a20.85,20.85,0,0,0,2.4-16.1,16.28,16.28,0,0,0-4.4-7.5l-1.3-15.9L86,31.61l-.2-4,15-4.5.9,15.4,11-15.5,10.9,10.3-15.1,15.9,14.2,5.6a19.84,19.84,0,0,0,7,7.4,22.28,22.28,0,0,0,9.8,3.2v10.2Zm-18.7-26.2-5-1.9,4.7-4.5A17.37,17.37,0,0,0,120.75,49.41Zm39.2,4.8a30.19,30.19,0,0,1-12.6,6,13.22,13.22,0,0,1-3.3.5c-8.3.8-15.2-3-17.8-9.1a15.55,15.55,0,0,1-.8-2.3,16.37,16.37,0,0,1,2.4-13.5,14.23,14.23,0,0,1,2.6-2.9,20.83,20.83,0,0,1,9-4.6c7.9-1.9,14.8.5,19.1,5.7l-15,16a10.28,10.28,0,0,0,3.8-.4,13.24,13.24,0,0,0,7.3-4.8l6,5.4,1.8,1.6A18.78,18.78,0,0,1,160,54.21Zm31.9,21.3-3.3-21.6L184,65.81l-6.9-14.9H177l-2.7,17.3-11.5-2,1.6-9.6a15.93,15.93,0,0,0,1.3-1.3l3.7-3.8-3.6-3.3,3.9-23h11.6l2.9,15.9,3.3-18.4h8.3l3.5,22.4c-4.4,5-6.5,11.7-5.1,17.9a16.46,16.46,0,0,0,8.3,10.9c.4.2.9.4,1.3.6l.4,2.9-12.3-1.9Zm28.7-7.1a16.84,16.84,0,0,1-4.2,2.2,15.23,15.23,0,0,1-8.6.8,14.77,14.77,0,0,1-5-2.1,12.7,12.7,0,0,1-4.8-7.2,15.41,15.41,0,0,1,1.9-11.2,21.19,21.19,0,0,1,3.8-4.7,19.43,19.43,0,0,1,5.8-3.6c5.1-1.9,10.1-1.2,13.6,1.3a10.74,10.74,0,0,1,3.2,3.5,14.19,14.19,0,0,1,1.4,3.6,16,16,0,0,1-3,13.1A12.9,12.9,0,0,1,220.55,68.41Zm26,20.4-8.5-2.5-.7-31.4-4.3,24.2-9.3-1.5.7-7c6.1-5.1,9.3-13.2,7.5-20.6a15.9,15.9,0,0,0-4.8-8.2l.8-8.2-3.5-.9.1-4.4,16,3.2L246,57l5.5-22.9,12.2,2.7-17.1,52Z"/></g></g><g id="flowRoot3115"><path id="path3084" d="M253.5,91.83V89.48h-.84V89.1h2.16v.28H254v2.35h-.47Z"/><path id="path3086" d="M255.1,91.83V89.1h.57l.65,1.88a.68.68,0,0,1,.1.38,1.34,1.34,0,0,1,.19-.47l.65-1.88h.47v2.72h-.37V89.48l-.75,2.25h-.38l-.75-2.25v2.25h-.38Z"/></g></svg>